# xmcd
#
# Track frame offsets: 
#        150
#        12417
#        27593
#        39161
#        52258
#        63958
#        80469
#        96345
#        108864
#        121528
#        141344
#        156864
#        171853
#        187871
#        210877
#        224399
#
# Disc length: 3225 seconds
#
# Revision: 0
# Processed by: cddbd v1.5.2PL0 Copyright (c) Steve Scherf et al.
# Submitted via: ExactAudioCopy v1.0b4
#
DISCID=d30c9710
DTITLE=Junior Watson, Fred Kaplan and Bharath Rajakumar - Best Of Three
DYEAR=2010
DGENRE=Blues
TTITLE0=Junior Watson - Bluelake Boogie
TTITLE1=Junior Watson - Let's Get High
TTITLE2=Junior Watson - Happy Hoppy
TTITLE3=Junior Watson - My Lil' Baby
TTITLE4=Junior Watson - StraightenUp Baby
TTITLE5=Fred Kaplan - Ford 150
TTITLE6=Fred Kaplan - Attention Please
TTITLE7=Fred Kaplan - Crawlin'
TTITLE8=Fred Kaplan - Made In Maceo
TTITLE9=Fred Kaplan - Fred's Blues
TTITLE10=Bharath Rajakumar - Someone Else
TTITLE11=Bharath Rajakumar - Boogie Woogie
TTITLE12=Bharath Rajakumar - Reelin'
TTITLE13=Bharath Rajakumar - Cursed 
TTITLE14=Bharath Rajakumar - Tonight With A Fool
TTITLE15=Untitled Track
EXTD=
EXTT0=
EXTT1=
EXTT2=
EXTT3=
EXTT4=
EXTT5=
EXTT6=
EXTT7=
EXTT8=
EXTT9=
EXTT10=
EXTT11=
EXTT12=
EXTT13=
EXTT14=
EXTT15=
PLAYORDER=
